<svg xmlns="http://www.w3.org/2000/svg" width="360" height="49" viewBox="0 0 360 49"><defs><clipPath id="b9jra"><path d="M221.33 48.436h45.738V30.36H221.33v18.076z"/></clipPath><clipPath id="b9jrb"><path d="M0 33.85v13.624h3.222V33.85H0z"/></clipPath><clipPath id="b9jrc"><path d="M103.728.75H56.7v26.951h47.028V.75z"/></clipPath></defs><g><g><g><path fill="#211300" d="M339.632 29.186l.032.077h-4.81l-19.603.315-7.861 17.891h11.982l3.092-7.346h21.774l3.092 7.346h11.982L351.197 29z"/></g><g><path fill="#211300" d="M272.14 47.477h10.952V32.785l9.727 14.692h13.27L293.762 29.93l-21.621.347z"/></g><g><g><g/><g clip-path="url(#b9jra)"><path fill="#211300" d="M255.453 30.546a12.495 12.495 0 0 1-2.449 3.388c-2.449 2.429-5.412 3.643-8.89 3.643-3.479 0-6.443-1.214-8.89-3.643a12.685 12.685 0 0 1-2.276-3.026l-11.618.186c1.01 3.964 3.07 7.502 6.164 10.57 4.573 4.536 10.113 6.772 16.62 6.772 6.506 0 12.046-2.236 16.62-6.771 3.283-3.257 5.398-7.043 6.334-11.305z"/></g></g><g><path fill="#211300" d="M177.431 31.8l-10.951.176v15.502h10.951z"/></g><g><path fill="#211300" d="M205.14 31.356v16.123h10.952V31.18z"/></g><g><path fill="#211300" d="M187.79 31.633l3.491 4.154 3.571-4.267z"/></g><g><path fill="#211300" d="M142.32 32.361v15.114h17.716v-3.194H145.54V32.31z"/></g><g><path fill="#211300" d="M132.207 47.47h4.316l-13.056-14.81-4.287.069z"/></g><g><path fill="#211300" d="M115.322 32.79l-3.222.051v14.63h3.222z"/></g><g><path fill="#211300" d="M98.92 33.057c-.99 2.285-2.436 4.384-4.339 6.303-3.93 3.898-8.76 5.877-14.365 5.877S69.78 43.257 65.85 39.36c-1.737-1.751-3.094-3.652-4.07-5.707l-3.5.057c1.15 2.917 2.92 5.574 5.316 7.95 4.573 4.535 10.114 6.77 16.62 6.77s12.047-2.235 16.62-6.77c2.588-2.567 4.453-5.462 5.586-8.66z"/></g><g><g/><g clip-path="url(#b9jrb)"><path fill="#211300" d="M3.222 33.85L0 33.901v13.573h3.222z"/></g></g><g><path fill="#211300" d="M45.09 33.172V47.47h3.221V33.12z"/></g><g><path fill="#211300" d="M24.158 23.357L2.32 1.7H0v28.046l3.222-.116V7.195l20.936 20.762L45.095 7.195v20.926l3.22-.116V1.7h-2.318z"/></g><g><g/><g clip-path="url(#b9jrc)"><path fill="#211300" d="M80.214.75c-6.506 0-12.046 2.3-16.62 6.836C59.02 12.12 56.7 17.616 56.7 24.068c0 1.245.09 2.456.262 3.634l3.25-.118a21.285 21.285 0 0 1-.29-3.516c0-5.559 1.997-10.286 5.926-14.183 3.93-3.961 8.761-5.94 14.366-5.94S90.65 5.923 94.58 9.884c3.93 3.897 5.927 8.624 5.927 14.183 0 .702-.033 1.391-.096 2.067l3.238-.116c.048-.643.079-1.291.079-1.951 0-6.453-2.32-11.947-6.894-16.482C92.261 3.049 86.721.75 80.214.75"/></g></g><g><path fill="#211300" d="M117.586 1.7c3.543 0 6.57 1.278 9.083 3.77 2.513 2.491 3.801 5.494 3.801 9.008 0 3.194-1.03 6.004-3.157 8.368a13.235 13.235 0 0 1-2.76 2.41l-12.443.45V1.7h5.476m6.829 19.557c1.868-1.854 2.834-4.154 2.834-6.774 0-2.622-.966-4.923-2.834-6.776-1.869-1.854-4.187-2.813-6.83-2.813h-2.253V24.07h2.254c2.642 0 4.96-.958 6.829-2.812"/></g><g><path fill="#211300" d="M142.33 24.617L159.401 24v-1.538h-13.85V4.894h14.495V1.7H142.33z"/></g><g><path fill="#211300" d="M191.292 17.862L177.763 1.7H166.49v22.045l10.951-.395v-5.104l4.163 4.954 19.938-.719 3.6-4.3v4.17l10.951-.394V1.7H204.82z"/></g><g><path fill="#211300" d="M260.742 7.586C256.168 3.049 250.628.75 244.122.75s-12.047 2.3-16.62 6.836c-4.028 3.993-6.306 8.733-6.792 14.213l11.123-.401c.481-2.321 1.61-4.371 3.399-6.147 2.448-2.428 5.412-3.64 8.89-3.64 3.478 0 6.442 1.212 8.89 3.64 1.56 1.548 2.619 3.306 3.185 5.269l11.124-.402c-.77-4.773-2.97-8.953-6.579-12.532"/></g><g><path fill="#211300" d="M287.29 1.7h-15.14v18.236l10.952-.394v-6.98h4.188c2.125 0 3.865 1.723 3.865 3.832 0 1.166-.545 2.202-1.38 2.907l12.106-.437c.143-.799.225-1.621.225-2.47 0-4.28-1.418-7.795-4.316-10.542-2.834-2.746-6.313-4.152-10.5-4.152"/></g><g><path fill="#211300" d="M339.665 1.7h-12.626l-7.259 16.52 11.656-.42 1.916-4.537 1.858 4.4 11.29-.407z"/></g></g></g></g></svg>