<svg width="462" height="50" viewBox="0 0 462 50" fill="none" xmlns="http://www.w3.org/2000/svg">
<g clip-path="url(#clip0)">
<rect width="462" height="50" fill="white"/>
<path fill-rule="evenodd" clip-rule="evenodd" d="M109.114 48.7926C107.504 49.124 105.468 49.4081 103.006 49.6449C100.591 49.8816 98.3188 50 96.1881 50C90.0328 50 85.4873 49.2424 82.5517 47.7273C79.6161 46.2121 77.6748 43.75 76.7278 40.3409C75.8148 37.054 75.3419 32.1826 75.3092 25.7267L87.8082 25.5597C87.8218 30.3234 88.0109 33.617 88.3756 35.4403C88.8017 37.2869 89.7487 38.518 91.2165 39.1335C92.6843 39.7017 95.3595 39.9858 99.242 39.9858C102.746 39.9858 106.037 39.749 109.114 39.2756V48.7926ZM116.09 25.1818C116.096 32.5202 116.451 37.7627 117.155 40.9091C117.913 44.0814 119.736 46.4015 122.624 47.8693C125.56 49.2898 130.46 50 137.326 50C144.191 50 149.068 49.2898 151.956 47.8693C154.892 46.4015 156.715 44.0814 157.425 40.9091C158.135 37.7367 158.491 32.4337 158.491 25C158.491 24.8711 158.49 24.7428 158.49 24.6152L145.919 24.7832C145.919 24.8551 145.92 24.9274 145.92 25C145.92 30.3977 145.777 33.9962 145.493 35.7954C145.209 37.5947 144.546 38.7547 143.505 39.2756C142.463 39.749 140.403 39.9858 137.326 39.9858C134.248 39.9858 132.165 39.749 131.076 39.2756C129.987 38.7547 129.3 37.571 129.016 35.7244C128.732 33.8796 128.59 30.3096 128.59 25.0147L116.09 25.1818ZM128.686 18.627L116.181 19.0347C116.328 14.6518 116.652 11.3372 117.155 9.09091C117.913 5.91856 119.736 3.62216 122.624 2.20171C125.56 0.733902 130.46 0 137.326 0C144.191 0 149.068 0.733902 151.956 2.20171C154.892 3.62216 156.715 5.91856 157.425 9.09091C157.874 11.0961 158.181 13.9525 158.346 17.6602L145.806 18.069C145.735 16.3614 145.631 15.0733 145.493 14.2045C145.209 12.4053 144.546 11.2689 143.505 10.7955C142.463 10.2746 140.403 10.0142 137.326 10.0142C134.248 10.0142 132.165 10.2746 131.076 10.7955C129.987 11.2689 129.3 12.429 129.016 14.2756C128.867 15.2474 128.756 16.6979 128.686 18.627ZM167.442 24.4955V49.4318H178.947V24.3418L167.442 24.4955ZM181.453 24.3083L189.885 49.4318H198.265L206.811 23.9695L196.154 24.1119L194.572 28.7642H194.075L192.498 24.1607L181.453 24.3083ZM189.919 16.631L167.442 17.3637V0.568184H184.416L189.919 16.631ZM198.797 16.3416L221.064 15.6157V0.568184H204.16L198.797 16.3416ZM221.064 23.779L209.203 23.9375V49.4318H221.064V23.779ZM231.182 23.6438L242.687 23.49V49.4318H231.182V23.6438ZM244.908 23.4604L253.625 49.4318H262.006L270.838 23.1139L260.185 23.2562L258.312 28.7642H257.815L255.948 23.3128L244.908 23.4604ZM252.955 14.5761L231.182 15.2859V0.568184H248.156L252.955 14.5761ZM263.251 14.2405L284.804 13.5379V0.568184H267.9L263.251 14.2405ZM284.804 22.9272L272.943 23.0857V49.4318H284.804V22.9272ZM295.064 22.7901L326.314 22.3725V29.7585H307.422V39.4176H329.723V49.4318H295.064V22.7901ZM307.422 12.8006L295.064 13.2035V0.568184H329.723V10.5824H307.422V12.8006ZM338.759 22.2062V49.4318H351.117V32.3153H359.711L366.103 49.4318H379.029L371.501 30.8239C374.105 29.6875 375.833 27.8646 376.686 25.3551C377.091 24.2238 377.405 23.001 377.628 21.6868L363.55 21.8749C363.353 21.9567 363.139 22.0277 362.907 22.0881C361.866 22.3722 360.066 22.5142 357.509 22.5142H351.117V22.0411L338.759 22.2062ZM351.117 11.3762L338.759 11.7791V0.568184H362.197C366.695 0.568184 370.081 1.20739 372.353 2.4858C374.673 3.71686 376.188 5.44508 376.899 7.67046C377.189 8.50634 377.424 9.45381 377.604 10.5129L363.21 10.9821C363.157 10.9666 363.104 10.9517 363.049 10.9375C362.008 10.6534 360.208 10.5114 357.652 10.5114H351.117V11.3762ZM385.73 21.5786C385.7 22.6669 385.685 23.8074 385.685 25C385.685 31.8182 386.158 36.9318 387.105 40.3409C388.052 43.75 389.994 46.2121 392.929 47.7273C395.865 49.2424 400.41 50 406.566 50C408.696 50 410.969 49.8816 413.384 49.6449C415.846 49.4081 417.882 49.124 419.492 48.7926V39.2756C416.414 39.749 413.123 39.9858 409.62 39.9858C405.737 39.9858 403.062 39.7017 401.594 39.1335C400.126 38.518 399.179 37.2869 398.753 35.4403C398.374 33.5464 398.185 30.0663 398.185 25C398.185 23.6975 398.198 22.5013 398.223 21.4116L385.73 21.5786ZM419.208 9.15665L386.997 10.2066C387.032 10.069 387.069 9.9338 387.105 9.80113C388.1 6.39204 390.065 3.90625 393 2.34375C395.936 0.78125 400.458 0 406.566 0C408.696 0 410.945 0.142044 413.313 0.426134C415.68 0.662876 417.645 0.970643 419.208 1.34943V9.15665ZM427.746 21.0171V49.4318H462.405V39.4176H440.104V29.7585H458.996V20.5995L427.746 21.0171ZM462.405 7.74851L427.746 8.87832V0.568184H462.405V7.74851ZM87.8881 19.957C87.9771 17.5566 88.1396 15.7812 88.3756 14.6307C88.8017 12.7367 89.7487 11.5057 91.2165 10.9375C92.6843 10.322 95.3595 10.0142 99.242 10.0142C100.805 10.0142 104.001 10.2509 108.83 10.7244V1.34943C107.268 0.970643 105.303 0.662876 102.935 0.426134C100.568 0.142044 98.3188 0 96.1881 0C90.0801 0 85.5583 0.78125 82.6227 2.34375C79.6871 3.90625 77.7222 6.39204 76.7278 9.80113C76.0125 12.3765 75.5673 15.8975 75.3923 20.3643L87.8881 19.957ZM49.5028 21.2082V0.568184H43.4659L33.9163 21.7163L38.9517 21.5522L44.7443 8.66478H45.0284V21.3541L49.5028 21.2082ZM36.8443 26.2407L31.8431 26.3076L24.929 41.6193H24.5739L17.7708 26.4956L12.6617 26.5639L22.9403 49.4318H26.4205L36.8443 26.2407ZM10.8212 22.4692L4.61648 8.66478H4.33239V22.6807L0 22.8219V0.568184H6.10795L15.8853 22.3041L10.8212 22.4692ZM0 26.7331L4.33239 26.6752V49.4318H0V26.7331ZM45.0284 26.1314L49.5028 26.0716V49.4318H45.0284V26.1314ZM61.5895 43.3239V49.4318H66.8451V43.3239H61.5895Z" fill="black"/>
</g>
<defs>
<clipPath id="clip0">
<rect width="462" height="50" fill="white"/>
</clipPath>
</defs>
</svg>
